# xmcd
#
# Track frame offsets:
#	150
#	11065
#	27232
#	43243
#	57106
#	70331
#	82279
#	93854
#	104084
#	113231
#	124858
#	136226
#	150923
#	164172
#	178046
#
# Disc length: 2544 seconds
#
# Revision: 0
# Processed by: cddbd v1.5.2PL0 Copyright (c) Steve Scherf et al.
# Submitted via: EZCDAudioConverter 7.1.4.1
#
DISCID=d109ee0f
DTITLE=Annie Marie Dolan - Heart To Heart
DYEAR=2010
DGENRE=Country
TTITLE0=Cut To The Chase
TTITLE1=Dark And Lonely Road
TTITLE2=Can't Be Together,Can't Be Apart
TTITLE3=Burn On Love Fire
TTITLE4=Heart To Heart
TTITLE5=No One But You
TTITLE6=I Just Don't Understand
TTITLE7=Silver Threads And Golden Needles
TTITLE8=That's Watcha Gotta Do
TTITLE9=Should I Ever Love Again
TTITLE10=Walking The Floor Over You
TTITLE11=I've Forgotten More Than You'll Ever Know
TTITLE12=Blues Keep Callin'
TTITLE13=The Weatherman
TTITLE14=Keep Your Hands Off Of It
EXTD=
EXTT0=
EXTT1=
EXTT2=
EXTT3=
EXTT4=
EXTT5=
EXTT6=
EXTT7=
EXTT8=
EXTT9=
EXTT10=
EXTT11=
EXTT12=
EXTT13=
EXTT14=
PLAYORDER=
